<?xml version="1.0" encoding="UTF-8"?>
<svg id="Layer_2" data-name="Layer 2" xmlns="http://www.w3.org/2000/svg" viewBox="0 0 664.93 304.48">
  <defs>
    <style>
      .cls-1 {
        fill: #1d114a;
      }
    </style>
  </defs>
  <g id="Layer_1-2" data-name="Layer 1">
    <g>
      <path class="cls-1" d="M350.4,130.29c.53-1.83,3.6-.35,5.03-.31,14.36.39,27.18-.81,41.53,1.68,27.26,4.75,52.46,18.63,75.98,32.82l34.64-17.89c.33.25-.67.88-.67,1.03v29.83c0,.37,1.15,1.44.62,2.35-18.85,10.97-37.6,22.16-56.39,33.26-21.95,12.97-45.26,29.16-69.86,36.37-13.58,3.98-45.51,3.82-60.13,2.5-11.32-1.02-23.69-7.25-29.78-17.26-1-.01-6.18,6.66-7.74,7.99-2.87,2.46-7.15,5.02-10.63,6.42-9.88,3.96-34.74,4.04-45.71,2.93-4.88-.49-9.79-2.95-14.48-4.14-11.16,34.03-49.87,52.79-82.67,56.16-1.49.15-9.1,1.04-9.1-.34v-43.01c0-2.07,3.51-.92,4.34-1.02,17.32-2.03,47.07-7.59,56.5-24.51,10.37-18.61-2.55-49.55-11.5-66.85l.92-1.61h34.07c2.11,5.44,4.81,10.59,7.06,15.98,3.69,8.83,4.44,18.43,14.34,22.71,8.43,3.65,28.23,3.53,36.16-1.36,14.58-9,10.09-27.06,11.93-41.5h31.37l1.01,1.04v20.12c0,10.59,10.24,22.61,20.65,23.86,11.18,1.34,31.48.7,43.13.1,22.5-1.16,50.51-11.22,69.59-23.48.75-.48,2.96-1.6,1.56-2.56-3.17-2.16-13.31-5.19-17.39-6.39-11.77-3.46-26.71-6.5-38.91-7.16-10.44-.57-23.11,1.27-33.12.06-.98-.12-1.73-.09-2.33-1.08v-36.77Z"/>
      <path class="cls-1" d="M570.99,59.88v121.05c0,9.69,6.26,20.93,15.06,24.75,7.47,3.24,26.45,2.99,33.73-.94,6.46-3.49,12.6-14.35,12.6-21.73v-41.27h32.38c-.92,28.74,4.25,59.42-10.44,85.34-15.33,27.04-40.32,27.1-68.17,24.99-32.52-2.46-46.13-36.9-47.57-66.24-2-41,1.56-83.72.03-124.89l1.06-1.66,31.32.61Z"/>
      <path class="cls-1" d="M59.98,120.93c24.81,24.19,54.45,42.17,51.63,82.23-5,71.04-118.11,70.87-111.32-14.58,1.73-21.84,19.11-41.05,37.09-51.01.27-1.01-.27-1.15-.66-1.74-2.77-4.14-9.32-8.43-12.44-12.19-.63-.76-1.21-1.64-1.07-2.71h36.77ZM74.25,203.23c16.38-15.41-3.9-37.23-16.66-46.65-12.5,7.57-26.47,18.75-24.92,35.45,1.82,19.59,29.42,22.65,41.58,11.21Z"/>
      <path class="cls-1" d="M569.64,2.31v10.75c0,.14,1.33,1.73-.98,1.72-1.45,0-6.79-2.42-9.56-2.68-15.46-1.44-17.64,13.11-5.24,18.56,1.12.49,6.5,2.16,7.34,2.16h11.81v10.06c0,.17.71.56.68,1.03-1.18,1.65-35.21.42-39.85.4l-.34-10.84,7.12-.65c-1.13-3.06-3.94-5.46-4.56-8.83-3.68-20.11,18.11-28.44,33.57-21.69Z"/>
      <path class="cls-1" d="M274.84,270.07c.11,4.74-.13,9.51-.03,14.25.04,1.76,1.36,3.36-.3,4.48h-16.19l-1.01-1.04v-16.65l1.01-1.04h16.53Z"/>
      <path class="cls-1" d="M75.16,90.06c.01.18.67.58.68,1.03-.69-.23-1.46.7-1.7.7h-15.52l-1.01-1.04v-16.65l1.01-1.04h15.52l1.01,1.04c.22,5.29-.3,10.67,0,15.95Z"/>
      <path class="cls-1" d="M486.67,243.02v17c0,.17.67.59.68,1.03-.69-.23-1.46.7-1.7.7h-15.52l-1.01-1.04v-15.95c0-.23.89-1.05.67-1.73h16.86Z"/>
      <path class="cls-1" d="M306.55,270.07v17c0,.17.67.59.68,1.03-.69-.23-1.46.7-1.7.7h-15.52l-1.01-1.04v-15.95c0-.23.89-1.05.67-1.73h16.86Z"/>
      <path class="cls-1" d="M43.46,73.76v16.3c0,.17.67.59.68,1.03-.69-.23-1.46.7-1.7.7h-15.52l-1.01-1.04v-16.65c1.24-1.24,4.41-1,6.37-1.07,3.71-.12,7.6-.27,11.17.72Z"/>
      <path class="cls-1" d="M627.66,111.22h-18.21v-17c0-.11.72-1.72,1.11-1.78,5.19,2.03,11.76-.81,16.43,1.78v15.95c0,.21.85.53.67,1.04Z"/>
      <path class="cls-1" d="M659.36,111.22h-18.21v-17c0-.25.86-1.06.69-1.74,5.31,1.98,12.04-.87,16.85,1.74v15.95c0,.21.85.53.67,1.04Z"/>
    </g>
  </g>
</svg>