<?xml version="1.0" encoding="UTF-8"?>
<svg id="Layer_2" data-name="Layer 2" xmlns="http://www.w3.org/2000/svg" viewBox="0 0 691.7 226.16">
  <defs>
    <style>
      .cls-1, .cls-2, .cls-3, .cls-4 {
        fill: #1d114a;
      }

      .cls-2 {
        font-size: 65.79px;
        stroke: #1b154a;
        stroke-miterlimit: 10;
        stroke-width: 4px;
      }

      .cls-2, .cls-3, .cls-4 {
        font-family: MVBoli, 'MV Boli';
      }

      .cls-3 {
        font-size: 117.48px;
      }

      .cls-4 {
        font-size: 181.55px;
      }
    </style>
  </defs>
  <g id="Layer_1-2" data-name="Layer 1">
    <path class="cls-1" d="M298.08,134.46c-2.65,2.26-3.84,6.21-5.65,9.21-6.93,11.54-17.88,22.52-33.05,17.39-18.18-6.15-12.76-34.49-7.27-48.03,7.47-18.44,24.36-34.83,44.95-36.65,6.54-.58,17.3-1.38,18.33,7.23-1.57,26.55,2.03,55.36,0,81.64-1.93,25.17-23.55,39.49-47.74,32.48-7.32-2.12-16.27-7.07-11.9-16.05,2.08-4.27,6.43-4.94,10.53-3.32,3.04,1.2,3.44,4.25,5.97,5.78,12.54,7.6,25.06-4.83,25.13-17.54l.7-32.14ZM293.07,89.68c-15.07,2.46-24.34,20.94-27.16,34.38-2.18,10.38-4.19,33.31,12.13,19.05,13.6-11.89,17.82-34.87,20.01-51.94-.02-2.33-3.45-1.75-4.99-1.49Z"/>
    <path class="cls-1" d="M128.67,142.76l-13.6,12.33c-13.72,10.01-42.24,12.27-37.95-12.37,2.31-13.29,19.88-26.87,31.47-32.15,6.7-3.05,14.02-4.31,20.82-6.96-.1-12.53,2.44-21.04-13.56-16.21-1.48.45-9.87,4.46-10.67,5.24-1.21,1.17-.18,2.87-2.53,4.39-11.21,7.23-22.58-10.25-8.74-14.27,3.64-1.06,3.04-.6,6.62-2.37,8.73-4.34,16.57-6.42,26.42-6.77,10.37-.37,18.69,1.44,19.73,13.45,1.65,19.1-2.01,41.37-.06,60.22.35,3.42,3.22,7.27,0,10.3s-18.52,3.83-19.34-2.07c-.36-2.61,2.82-9.09,1.4-12.75ZM128.67,115.79c-7.73,1.46-16.94,5.51-23.14,10.39-1.12.88-7.26,5.82-7.6,6.19-.7.76-3.45,6.3-3.66,7.43-2.4,12.8,11.09,7.14,17.34,3.51,9.72-5.64,19.17-15.32,17.07-27.52Z"/>
    <path class="cls-1" d="M505.01,147.74c-.14.2.52.94.4,1.11-2,2.83-12.47,9.22-15.99,10.63-24.3,9.71-39.37-6.6-23.85-28.69,10.68-15.2,29.08-22.2,46.23-27.21.33-13.4,1.74-21.46-14.54-15.78-.97.34-9.13,4.3-9.53,4.64-.8.68-.35,2.89-2.69,4.58-8,5.81-19.48-4.5-12.96-11.58,2.96-3.21,4.88-2.12,8.06-3.01,1.55-.43,5.08-3.32,7.44-4.31,6.95-2.91,23.4-5.61,30.72-4.47,5.06.79,10.01,6.36,10.7,11.43,2.58,18.96-1.78,43.36.02,62.9.95,2.63,2,4.58,1.4,7.56-1.07,5.28-19.59,6.48-20.6-.14-.39-2.54,3.93-8.35,1.63-11.97l-1.76-.34c-.77,1.42-4.07,3.77-4.67,4.65ZM480.94,132.68c-4.4,5.18-8.42,15.53,2.11,14.93,9.03-.51,23.8-12.24,27.19-20.55,1.01-2.47,3.5-11.65-.72-11.15-2.92.34-10.13,3.56-12.98,5.06-4.53,2.38-12.37,7.91-15.6,11.72Z"/>
    <path class="cls-1" d="M172.48,125.71c5.96-6.3,16.63-13.19,24.66-16.48,5.68-2.33,12.06-3.11,17.31-5.68,1.12-3.5,1.42-14.72-1.9-16.67-5.83-3.42-16.81,3.48-22.27,5.47.91,4.84-5.32,6.6-9.42,6.18-7.17-.73-11.2-10.03-4.14-14.55,2.46-1.57,4.38-.9,6.53-1.77,2.64-1.06,5.62-3.54,8.48-4.66,7.31-2.86,22.16-5.05,29.78-3.78,4.84.81,9.65,6.35,10.19,11.24,2.15,19.24-2.39,43.25-.02,62.25.46,3.66,3.36,4.57,1.23,8.81-2.18,4.37-15.11,5.07-18.49,2.22-3.89-3.29,2.84-12.05-1.06-16.22-5.42,7.66-12.89,14.34-21.79,17.61-29.92,10.96-38.29-13.71-19.11-33.98ZM214.42,115.79c-10.76,1.04-33.56,14.09-35.12,25.43-1.09,7.87,6.78,6.91,11.97,5.01,11.34-4.16,25.59-17.09,23.15-30.44Z"/>
    <path class="cls-1" d="M52.6,52.17l-.03,92.36c-.32,2.4,2.03,4.58,1.91,6.77-.42,7.82-9.84,8.87-15.99,8-8.36-1.19-5.99-9.61-4.53-15.47l-.03-87.51c-.77-.76-12.45,1.97-14.53,2.42-5,1.07-7.77,3.29-13.43,2.38-6.37-1.02-7.47-8.29-4.14-13.04,3.61-5.15,8.12-2.06,12.98-2.18,9.46-.23,21.5-7.64,30.54-7.61,9.86.03,17.18-2.54,26.21-2.71.51-.01.42-1.12.88-1.38,1.96-1.13,9.11-.78,11.23.41,6.04,3.4,3.73,14.34-3.09,15.46-3.63.59-5.63-1.12-8.13-1.12-5.69,0-13.67,4.04-19.84,3.23Z"/>
    <path class="cls-1" d="M459.72,104.55c-2.08,2.24-12.48,2.12-14.99.48-4.76-3.09,1.52-8.39-1.88-12.11-2.66-.62-8.33,3.93-10.36,5.82-1.32,1.22-8.3,9.3-8.53,10.49.96,11.1-1.34,24.45-.03,35.27.53,4.37,4.71,5.49,1.54,11.19-2.7,4.84-17.75,5.14-20.91,1.27-3.92-4.81,1.02-7.13,1.44-10.36-1.23-19.1,1.51-39.96,0-58.84-.37-4.59-4.04-8.33,2.04-11.04,3.93-1.75,16.5-2.25,17.31,3.5.37,2.62-3.61,7.7-.37,10.66,8.06-9.96,29.71-25.65,35.3-4.86,1.01,3.77,2.07,15.7-.56,18.52Z"/>
    <text class="cls-4" transform="translate(306.44 155.67)"><tspan x="0" y="0">e</tspan></text>
    <text class="cls-2" transform="translate(570.45 147.55)"><tspan x="0" y="0">com</tspan></text>
    <text class="cls-3" transform="translate(525.06 191.17)"><tspan x="0" y="0">.</tspan></text>
  </g>
</svg>