<?xml version="1.0" encoding="UTF-8"?>
<svg id="Layer_2" xmlns="http://www.w3.org/2000/svg" version="1.1" viewBox="0 0 603.6 594.6">
  <!-- Generator: Adobe Illustrator 29.3.0, SVG Export Plug-In . SVG Version: 2.1.0 Build 146)  -->
  <defs>
    <style>
      .st0 {
        fill: none;
        stroke: #e08f25;
        stroke-miterlimit: 10;
        stroke-width: 60px;
      }
    </style>
  </defs>
  <path class="st0" d="M63.7,185c5.8-5.8,10.5-9.4,16.4-13.8,44.7-32.3,137-100.5,180-131,18.4-11.8,43-12.7,63.9-6.5,13.5,3.8,25.7,11.4,36.6,19.8,57,43,123.1,92.4,180,135.7,3.7,3,7.3,6.1,10.5,9.8,12.5,14.2,23.3,38.9,22.2,57.8-.6,9.1-3.6,17.8-6.3,26.5-22.6,70.9-46.5,152.9-68.8,224.1-2.2,6.3-4.8,12.6-8.2,18.4-15,26.6-44.4,38.9-74,38.6-57.9-.2-160.7.6-230.6-.2-5.5-.2-11.3-.6-17.3-1.5-32-4.4-50.5-21.1-59.8-51.5-15.2-47.9-31.9-104-48.8-155.3-7.6-23.2-15.8-47-23.1-70.4-4.4-15-8.5-31.1-5.7-46.8,3.9-20.6,18.3-38.6,32.7-53.7h0Z"/>
</svg>