<?xml version="1.0" encoding="UTF-8"?>
<svg id="Layer_2" data-name="Layer 2" xmlns="http://www.w3.org/2000/svg" viewBox="0 0 1026.84 594.64">
  <defs>
    <style>
      .cls-1, .cls-2, .cls-3, .cls-4 {
        fill: #1d114a;
      }

      .cls-2 {
        font-size: 65.79px;
        stroke: #1b154a;
        stroke-width: 4px;
      }

      .cls-2, .cls-5 {
        stroke-miterlimit: 10;
      }

      .cls-2, .cls-3, .cls-4 {
        font-family: MVBoli, 'MV Boli';
      }

      .cls-5 {
        fill: none;
        stroke: #e08f25;
        stroke-width: 60px;
      }

      .cls-3 {
        font-size: 117.48px;
      }

      .cls-4 {
        font-size: 181.55px;
      }
    </style>
  </defs>
  <g id="Layer_1-2" data-name="Layer 1">
    <path class="cls-5" d="M233.29,185.03c5.85-5.79,10.5-9.44,16.43-13.76,44.67-32.3,136.96-100.47,180.02-131.02,18.37-11.76,42.98-12.65,63.94-6.47,13.54,3.75,25.66,11.43,36.59,19.79,57.02,42.97,123.13,92.42,180.05,135.67,3.72,2.99,7.28,6.12,10.55,9.75,12.48,14.18,23.27,38.9,22.21,57.81-.58,9.08-3.63,17.83-6.29,26.53-22.61,70.9-46.54,152.89-68.78,224.1-2.17,6.27-4.8,12.6-8.22,18.42-15.03,26.6-44.41,38.91-74.04,38.62-57.95-.25-160.69.61-230.59-.18-5.48-.21-11.25-.61-17.27-1.5-32.04-4.42-50.46-21.07-59.78-51.54-15.23-47.86-31.87-103.99-48.75-155.31-7.56-23.24-15.81-47.02-23.14-70.38-4.43-15.02-8.55-31.13-5.73-46.78,3.93-20.59,18.35-38.65,32.73-53.66l.09-.09Z"/>
    <g>
      <path class="cls-1" d="M350.4,266.55c.53-1.83,3.6-.35,5.03-.31,14.36.39,27.18-.81,41.53,1.68,27.26,4.75,52.46,18.63,75.98,32.82l34.64-17.89c.33.25-.67.88-.67,1.03v29.83c0,.37,1.15,1.44.62,2.35-18.85,10.97-37.6,22.16-56.39,33.26-21.95,12.97-45.26,29.16-69.86,36.37-13.58,3.98-45.51,3.82-60.13,2.5-11.32-1.02-23.69-7.25-29.78-17.26-1-.01-6.18,6.66-7.74,7.99-2.87,2.46-7.15,5.02-10.63,6.42-9.88,3.96-34.74,4.04-45.71,2.93-4.88-.49-9.79-2.95-14.48-4.14-11.16,34.03-49.87,52.79-82.67,56.16-1.49.15-9.1,1.04-9.1-.34v-43.01c0-2.07,3.51-.92,4.34-1.02,17.32-2.03,47.07-7.59,56.5-24.51,10.37-18.61-2.55-49.55-11.5-66.85l.92-1.61h34.07c2.11,5.44,4.81,10.59,7.06,15.98,3.69,8.83,4.44,18.43,14.34,22.71,8.43,3.65,28.23,3.53,36.16-1.36,14.58-9,10.09-27.06,11.93-41.5h31.37l1.01,1.04v20.12c0,10.59,10.24,22.61,20.65,23.86,11.18,1.34,31.48.7,43.13.1,22.5-1.16,50.51-11.22,69.59-23.48.75-.48,2.96-1.6,1.56-2.56-3.17-2.16-13.31-5.19-17.39-6.39-11.77-3.46-26.71-6.5-38.91-7.16-10.44-.57-23.11,1.27-33.12.06-.98-.12-1.73-.09-2.33-1.08v-36.77Z"/>
      <path class="cls-1" d="M570.99,196.14v121.05c0,9.69,6.26,20.93,15.06,24.75,7.47,3.24,26.45,2.99,33.73-.94,6.46-3.49,12.6-14.35,12.6-21.73v-41.27h32.38c-.92,28.74,4.25,59.42-10.44,85.34-15.33,27.04-40.32,27.1-68.17,24.99-32.52-2.46-46.13-36.9-47.57-66.24-2-41,1.56-83.72.03-124.89l1.06-1.66,31.32.61Z"/>
      <path class="cls-1" d="M59.98,257.18c24.81,24.19,54.45,42.17,51.63,82.23-5,71.04-118.11,70.87-111.32-14.58,1.73-21.84,19.11-41.05,37.09-51.01.27-1.01-.27-1.15-.66-1.74-2.77-4.14-9.32-8.43-12.44-12.19-.63-.76-1.21-1.64-1.07-2.71h36.77ZM74.25,339.49c16.38-15.41-3.9-37.23-16.66-46.65-12.5,7.57-26.47,18.75-24.92,35.45,1.82,19.59,29.42,22.65,41.58,11.21Z"/>
      <path class="cls-1" d="M569.64,138.56v10.75c0,.14,1.33,1.73-.98,1.72-1.45,0-6.79-2.42-9.56-2.68-15.46-1.44-17.64,13.11-5.24,18.56,1.12.49,6.5,2.16,7.34,2.16h11.81v10.06c0,.17.71.56.68,1.03-1.18,1.65-35.21.42-39.85.4l-.34-10.84,7.12-.65c-1.13-3.06-3.94-5.46-4.56-8.83-3.68-20.11,18.11-28.44,33.57-21.69Z"/>
      <path class="cls-1" d="M274.84,406.33c.11,4.74-.13,9.51-.03,14.25.04,1.76,1.36,3.36-.3,4.48h-16.19l-1.01-1.04v-16.65l1.01-1.04h16.53Z"/>
      <path class="cls-1" d="M75.16,226.31c.01.18.67.58.68,1.03-.69-.23-1.46.7-1.7.7h-15.52l-1.01-1.04v-16.65l1.01-1.04h15.52l1.01,1.04c.22,5.29-.3,10.67,0,15.95Z"/>
      <path class="cls-1" d="M486.67,379.27v17c0,.17.67.59.68,1.03-.69-.23-1.46.7-1.7.7h-15.52l-1.01-1.04v-15.95c0-.23.89-1.05.67-1.73h16.86Z"/>
      <path class="cls-1" d="M306.55,406.33v17c0,.17.67.59.68,1.03-.69-.23-1.46.7-1.7.7h-15.52l-1.01-1.04v-15.95c0-.23.89-1.05.67-1.73h16.86Z"/>
      <path class="cls-1" d="M43.46,210.01v16.3c0,.17.67.59.68,1.03-.69-.23-1.46.7-1.7.7h-15.52l-1.01-1.04v-16.65c1.24-1.24,4.41-1,6.37-1.07,3.71-.12,7.6-.27,11.17.72Z"/>
      <path class="cls-1" d="M627.66,247.47h-18.21v-17c0-.11.72-1.72,1.11-1.78,5.19,2.03,11.76-.81,16.43,1.78v15.95c0,.21.85.53.67,1.04Z"/>
      <path class="cls-1" d="M659.36,247.47h-18.21v-17c0-.25.86-1.06.69-1.74,5.31,1.98,12.04-.87,16.85,1.74v15.95c0,.21.85.53.67,1.04Z"/>
    </g>
    <path class="cls-1" d="M633.23,502.65c-2.65,2.26-3.84,6.21-5.65,9.21-6.93,11.54-17.88,22.52-33.05,17.39-18.18-6.15-12.76-34.49-7.27-48.03,7.47-18.44,24.36-34.83,44.95-36.65,6.54-.58,17.3-1.38,18.33,7.23-1.57,26.55,2.03,55.36,0,81.64-1.93,25.17-23.55,39.49-47.74,32.48-7.32-2.12-16.27-7.07-11.9-16.05,2.08-4.27,6.43-4.94,10.53-3.32,3.04,1.2,3.44,4.25,5.97,5.78,12.54,7.6,25.06-4.83,25.13-17.54l.7-32.14ZM628.21,457.87c-15.07,2.46-24.34,20.94-27.16,34.38-2.18,10.38-4.19,33.31,12.13,19.05,13.6-11.89,17.82-34.87,20.01-51.94-.02-2.33-3.45-1.75-4.99-1.49Z"/>
    <path class="cls-1" d="M463.81,510.95l-13.6,12.33c-13.72,10.01-42.24,12.27-37.95-12.37,2.31-13.29,19.88-26.87,31.47-32.15,6.7-3.05,14.02-4.31,20.82-6.96-.1-12.53,2.44-21.04-13.56-16.21-1.48.45-9.87,4.46-10.67,5.24-1.21,1.17-.18,2.87-2.53,4.39-11.21,7.23-22.58-10.25-8.74-14.27,3.64-1.06,3.04-.6,6.62-2.37,8.73-4.34,16.57-6.42,26.42-6.77,10.37-.37,18.69,1.44,19.73,13.45,1.65,19.1-2.01,41.37-.06,60.22.35,3.42,3.22,7.27,0,10.3s-18.52,3.83-19.34-2.07c-.36-2.61,2.82-9.09,1.4-12.75ZM463.81,483.98c-7.73,1.46-16.94,5.51-23.14,10.39-1.12.88-7.26,5.82-7.6,6.19-.7.76-3.45,6.3-3.66,7.43-2.4,12.8,11.09,7.14,17.34,3.51,9.72-5.64,19.17-15.32,17.07-27.52Z"/>
    <path class="cls-1" d="M840.15,515.93c-.14.2.52.94.4,1.11-2,2.83-12.47,9.22-15.99,10.63-24.3,9.71-39.37-6.6-23.85-28.69,10.68-15.2,29.08-22.2,46.23-27.21.33-13.4,1.74-21.46-14.54-15.78-.97.34-9.13,4.3-9.53,4.64-.8.68-.35,2.89-2.69,4.58-8,5.81-19.48-4.5-12.96-11.58,2.96-3.21,4.88-2.12,8.06-3.01,1.55-.43,5.08-3.32,7.44-4.31,6.95-2.91,23.4-5.61,30.72-4.47,5.06.79,10.01,6.36,10.7,11.43,2.58,18.96-1.78,43.36.02,62.9.95,2.63,2,4.58,1.4,7.56-1.07,5.28-19.59,6.48-20.6-.14-.39-2.54,3.93-8.35,1.63-11.97l-1.76-.34c-.77,1.42-4.07,3.77-4.67,4.65ZM816.08,500.87c-4.4,5.18-8.42,15.53,2.11,14.93,9.03-.51,23.8-12.24,27.19-20.55,1.01-2.47,3.5-11.65-.72-11.15-2.92.34-10.13,3.56-12.98,5.06-4.53,2.38-12.37,7.91-15.6,11.72Z"/>
    <path class="cls-1" d="M507.62,493.9c5.96-6.3,16.63-13.19,24.66-16.48,5.68-2.33,12.06-3.11,17.31-5.68,1.12-3.5,1.42-14.72-1.9-16.67-5.83-3.42-16.81,3.48-22.27,5.47.91,4.84-5.32,6.6-9.42,6.18-7.17-.73-11.2-10.03-4.14-14.55,2.46-1.57,4.38-.9,6.53-1.77,2.64-1.06,5.62-3.54,8.48-4.66,7.31-2.86,22.16-5.05,29.78-3.78,4.84.81,9.65,6.35,10.19,11.24,2.15,19.24-2.39,43.25-.02,62.25.46,3.66,3.36,4.57,1.23,8.81-2.18,4.37-15.11,5.07-18.49,2.22-3.89-3.29,2.84-12.05-1.06-16.22-5.42,7.66-12.89,14.34-21.79,17.61-29.92,10.96-38.29-13.71-19.11-33.98ZM549.56,483.98c-10.76,1.04-33.56,14.09-35.12,25.43-1.09,7.87,6.78,6.91,11.97,5.01,11.34-4.16,25.59-17.09,23.15-30.44Z"/>
    <path class="cls-1" d="M387.75,420.36l-.03,92.36c-.32,2.4,2.03,4.58,1.91,6.77-.42,7.82-9.84,8.87-15.99,8-8.36-1.19-5.99-9.61-4.53-15.47l-.03-87.51c-.77-.76-12.45,1.97-14.53,2.42-5,1.07-7.77,3.29-13.43,2.38-6.37-1.02-7.47-8.29-4.14-13.04,3.61-5.15,8.12-2.06,12.98-2.18,9.46-.23,21.5-7.64,30.54-7.61,9.86.03,17.18-2.54,26.21-2.71.51-.01.42-1.12.88-1.38,1.96-1.13,9.11-.78,11.23.41,6.04,3.4,3.73,14.34-3.09,15.46-3.63.59-5.63-1.12-8.13-1.12-5.69,0-13.67,4.04-19.84,3.23Z"/>
    <path class="cls-1" d="M794.86,472.74c-2.08,2.24-12.48,2.12-14.99.48-4.76-3.09,1.52-8.39-1.88-12.11-2.66-.62-8.33,3.93-10.36,5.82-1.32,1.22-8.3,9.3-8.53,10.49.96,11.1-1.34,24.45-.03,35.27.53,4.37,4.71,5.49,1.54,11.19-2.7,4.84-17.75,5.14-20.91,1.27-3.92-4.81,1.02-7.13,1.44-10.36-1.23-19.1,1.51-39.96,0-58.84-.37-4.59-4.04-8.33,2.04-11.04,3.93-1.75,16.5-2.25,17.31,3.5.37,2.62-3.61,7.7-.37,10.66,8.06-9.96,29.71-25.65,35.3-4.86,1.01,3.77,2.07,15.7-.56,18.52Z"/>
    <text class="cls-4" transform="translate(641.58 523.86)"><tspan x="0" y="0">e</tspan></text>
    <text class="cls-2" transform="translate(905.6 515.74)"><tspan x="0" y="0">com</tspan></text>
    <text class="cls-3" transform="translate(860.2 559.36)"><tspan x="0" y="0">.</tspan></text>
  </g>
</svg>